<?xml version="1.0" encoding="UTF-8"?>
<svg id="Layer_1" data-name="Layer 1" xmlns="http://www.w3.org/2000/svg" viewBox="0 0 1638.58 197.05">
  <defs>
    <style>
      .cls-1 {
        fill: #078783;
      }

      .cls-2 {
        fill: #069494;
      }
    </style>
  </defs>
  <g>
    <path class="cls-2" d="M0,157.16s28.8-53.59,46.6-50.83c17.79,2.75,25.42,60.92,49.99,61.42,41.09.85,45.11-101.24,56.55-101.24,23.93,0,11.86,155.46,103.99,127.08-80.24-2.11-66.64-148.07-102.72-154.19-31.87-5.4-35.58,106.11-55.92,102.3-17.37.85-22.66-54.64-42.36-54.86,0,0-28.38-8.05-56.13,70.32Z"/>
    <circle class="cls-2" cx="153.13" cy="15.04" r="15.04"/>
    <path class="cls-1" d="M86.91,132.88s4.19,13.52,23.24,14.35c28.91,1.26,32.39-80.08,42.98-80.72,0,0,1.95-.21,4.72,2.35,0,0-6.58-16.72-15.91-15.68-25.59,2.86-24.21,121.1-55.03,79.7Z"/>
  </g>
  <g>
    <path d="M280.68,77.15v70.45h-24.54v-70.45h-22.96v-22.96h71.25v22.96h-23.75Z"/>
    <path d="M382.96,143.01c-11.4,3.33-27.23,6.17-44.49,6.17-9.03,0-22.96-6.33-22.96-27.71v-24.38c0-13.77,7.76-26.12,26.12-26.12h15.36c18.68,0,24.54,11.08,24.54,21.53v16.78c0,4.91-2.53,7.6-6.81,7.6h-36.26v4.12c0,3.17,1.42,8.23,7.76,8.23,6.97,0,26.92-1.74,36.73-3.17v16.94ZM363.01,95.52c0-4.12-3.17-6.17-6.02-6.17h-12.35c-3.32,0-6.17,2.38-6.17,6.17v7.6h24.54v-7.6Z"/>
    <path d="M447.71,147.6l-2.69-5.86c-7.12,3.8-15.52,7.44-21.85,7.44h-4.59c-4.91,0-19.95-3.48-19.95-23.12v-6.02c0-8.55,4.12-21.53,24.54-21.53h19.16v-6.02c0-2.06-1.42-3.17-3.01-3.17h-29.92v-18.37h38.79c12.19,0,16.94,7.76,16.94,16.78v59.85h-17.42ZM442.33,113.72h-19.79c-1.27,0-3.17.63-3.17,3.01v7.92c0,3.17,2.22,6.17,6.17,6.17,5.22,0,9.66-1.11,16.78-3.01v-14.09Z"/>
    <path d="M485.7,147.6V49.6h23.59v98h-23.59Z"/>
    <path d="M620.75,147.6h-25.81l-11.87-64.44-10.92,64.44h-25.96l-22.64-93.41h24.54l12.35,60.64,11.56-60.64h24.54l11.56,60.64,12.19-60.64h21.53l-21.06,93.41Z"/>
    <path d="M698.8,147.6l-2.69-5.86c-7.12,3.8-15.52,7.44-21.85,7.44h-4.59c-4.91,0-19.95-3.48-19.95-23.12v-6.02c0-8.55,4.12-21.53,24.54-21.53h19.16v-6.02c0-2.06-1.42-3.17-3.01-3.17h-29.92v-18.37h38.79c12.19,0,16.94,7.76,16.94,16.78v59.85h-17.42ZM693.42,113.72h-19.79c-1.27,0-3.17.63-3.17,3.01v7.92c0,3.17,2.22,6.17,6.17,6.17,5.22,0,9.66-1.11,16.78-3.01v-14.09Z"/>
    <path d="M784.61,147.6h-27.55l-27.71-76.63h26.12l15.36,55.1,15.2-55.1h26.12l-27.55,76.63Z"/>
    <path d="M890.85,143.01c-11.4,3.33-27.23,6.17-44.49,6.17-9.03,0-22.96-6.33-22.96-27.71v-24.38c0-13.77,7.76-26.12,26.12-26.12h15.36c18.68,0,24.54,11.08,24.54,21.53v16.78c0,4.91-2.53,7.6-6.81,7.6h-36.26v4.12c0,3.17,1.42,8.23,7.76,8.23,6.97,0,26.92-1.74,36.73-3.17v16.94ZM870.9,95.52c0-4.12-3.17-6.17-6.02-6.17h-12.35c-3.32,0-6.17,2.38-6.17,6.17v7.6h24.54v-7.6Z"/>
    <path d="M1021.77,124.65c0,18.68-13.62,24.54-23.75,24.54-15.67,0-35.78-2.06-45.6-3.17v-21.37c8.71.95,28.97,3.01,38.63,3.01,3.01,0,7.76-1.58,7.76-5.86v-10.92h-28.02c-13.62,0-16.78-9.97-16.78-15.36v-21.53c0-12.19,6.17-19.79,22.96-19.79h38.63v20.42h-35.46c-1.58,0-3.17,1.11-3.17,3.17v13.14h27.87c13.14,0,16.94,8.23,16.94,15.04v18.68Z"/>
    <path d="M1115.81,120.69c0,12.51-7.28,26.92-26.12,26.92h-28.97c-12.51,0-19.95-8.71-19.95-20.74v-29.45c0-9.66,5.22-26.44,25.97-26.44h29.13c14.41,0,19.95,13.14,19.95,20.74v28.97ZM1093.33,97.26c0-4.43-3.48-6.02-6.17-6.02h-20.9c-1.11,0-3.01.63-3.01,3.01v25.97c0,4.91,3.96,6.02,6.17,6.02h20.74c1.11,0,3.17-.79,3.17-3.17v-25.81Z"/>
    <path d="M1135.6,147.6V49.6h23.59v98h-23.59Z"/>
    <path d="M1231.86,147.6l-2.22-5.38c-8.55,3.32-18.37,6.97-26.92,6.97-9.18,0-22.96-1.58-22.96-27.71v-50.51h22.96v45.91c0,3.01.16,10.77,7.76,10.77,4.28,0,11.72-1.42,18.37-2.85v-53.83h22.96v76.63h-19.95Z"/>
    <path d="M1301.04,149.19c-10.45,0-23.43-7.28-23.43-27.71v-30.56h-9.18v-19.95h9.18l3.01-12.19h19.95v12.19h22.96v19.95h-22.96v25.97c0,6.17,1.58,10.77,7.6,10.77,4.28,0,13.93-.95,18.52-1.58v18.52c-7.44,1.9-14.72,4.59-25.65,4.59Z"/>
    <path d="M1344.26,61.79v-13.93h24.86v13.93h-24.86ZM1344.89,147.6v-76.63h23.59v76.63h-23.59Z"/>
    <path d="M1463.32,120.69c0,12.51-7.28,26.92-26.12,26.92h-28.97c-12.51,0-19.95-8.71-19.95-20.74v-29.45c0-9.66,5.22-26.44,25.97-26.44h29.13c14.41,0,19.95,13.14,19.95,20.74v28.97ZM1440.84,97.26c0-4.43-3.48-6.02-6.17-6.02h-20.9c-1.11,0-3.01.63-3.01,3.01v25.97c0,4.91,3.96,6.02,6.17,6.02h20.74c1.11,0,3.17-.79,3.17-3.17v-25.81Z"/>
    <path d="M1533.61,147.6v-47.5c0-6.17-3.01-9.18-7.6-9.18s-12.82,1.11-19.95,2.22v54.46h-22.96v-76.63h19.95l2.38,4.91c8.07-3.17,18.68-6.49,28.18-6.49s23.12,1.58,23.12,27.71v50.51h-23.12Z"/>
    <path d="M1638.58,126.07c0,16.62-11.08,23.12-23.12,23.12-15.04,0-31.67-1.58-39.74-3.17v-19.95c6.33.95,21.85,3.17,32.14,3.17,5.38,0,7.6-2.38,7.6-6.65v-4.12h-21.37c-11.87,0-16.94-8.23-16.94-15.83v-13.3c0-12.19,9.34-18.37,23.12-18.37h32.14v18.37h-29.13c-1.27,0-3.01.79-3.01,3.17v7.6h21.37c12.35,0,16.94,7.76,16.94,13.93v12.03Z"/>
  </g>
</svg>